<?xml version="1.0" encoding="UTF-8"?>
<svg id="Layer_1" xmlns="http://www.w3.org/2000/svg" version="1.1" viewBox="0 0 284.27 518.4">
  <!-- Generator: Adobe Illustrator 29.8.6, SVG Export Plug-In . SVG Version: 2.1.1 Build 1)  -->
  <path d="M265.64,494.42c-1.97,3.07-4.53,5.91-5.8,9.24-4.2,11.03-12.81,14.78-23.6,14.74-7.83-.03-15.67-.69-23.48-1.32-1.19-.1-2.28-1.53-3.41-2.34.98-1.36,1.7-3.5,2.99-3.94,5.19-1.76,10.5-3.56,15.9-4.23,4.26-.53,6.33-2.84,8.21-6,1.02-1.71,2.01-3.44,3.46-5.92-2.58.33-4.37.52-6.16.8-1.98.31-3.22-.35-3.78-2.36-2.04-7.34-6.25-13.56-10.38-19.82-1.6-2.43-3.17-4.94-4.38-7.57-10.1-21.9-23.52-41.91-36.42-62.13-12.86-20.15-20.7-41.66-23.71-65.19-.68-5.31-1.93-10.54-3.11-16.86-1.29,1.83-2.05,2.82-2.71,3.88-4.05,6.47-7.83,13.16-14.32,17.65-.44.3-.93.82-1.01,1.3-.97,5.85-5.71,9.5-8.25,14.39-1.18,2.26-1.68,5.19-1.55,7.76.46,8.59-1.22,16.88-4.17,24.71-10.93,28.97-22.27,57.79-33.46,86.67-.77,1.99-1.39,4.08-2.46,5.89-1.46,2.46-1.25,5.85-5.28,7.01-1.9.55-3.06,4.14-4.26,6.51-2.03,4-3.9,8.09-5.69,12.2-.87,2.01-1.93,2.69-4.13,1.91-11.55-4.1-10.03-2.74-6.74-12.98.41-1.27.79-2.55,1.46-4.75-3.98,1.28-7.66,1.78-10.6,3.53-9.35,5.56-18.51,4.79-27.42-.42-6.85-4.01-13.3-8.68-19.85-13.19-.81-.56-1.76-2.39-1.48-2.77.84-1.14,2.17-2.36,3.49-2.6,1.55-.29,3.29.39,4.95.66,4.98.83,9.93,1.88,14.94,2.41,2,.21,4.17-.58,6.18-1.18,4.05-1.2,8.05-2.58,12.92-4.16-3.22-1.98-5.61-3.45-8.61-5.29,2.98-3.17,5.47-6.18,8.33-8.77,2.63-2.38,3.94-5.05,4.73-8.53,1.78-7.86,3.95-15.66,6.42-23.33,7.4-22.96,14.57-46.01,22.69-68.71,6.15-17.2,13.37-34.04,20.6-50.83,8.2-19.06,16.95-37.88,25.43-56.81,2.62-5.85,5.19-11.74,7.93-17.95-6.51-1.84-7.07-6.91-7.25-11.91-.23-6.35-.06-12.72-.06-19.59-2.61,1.08-4.93,2.11-7.29,3.01-12.14,4.65-24.32,9.21-36.44,13.93-3.74,1.46-6.02.23-8.09-2.92-2.84-4.31-2.98-4.21-7.74-2.09-2.58,1.15-5.19,2.25-7.66,3.32.24.97.25,1.2.35,1.39.77,1.48,1.56,2.95,2.35,4.42-1.71-.34-3.43-.7-5.14-1.03-4.32-.82-6.59-4.31-9.27-7.22-1.45-1.58-.63-8.63,1.39-9.93,3.8-2.46,7.67-4.99,11.85-6.66,17.07-6.8,34.29-13.21,51.39-19.94,4.99-1.96,9.76-4.48,14.61-6.79,1.88-.89,2.63-2.3,2.63-4.55,0-8.55-.65-16.98-2.74-25.31-.46-1.83-.2-4.09.44-5.9,5.25-14.77,11.81-28.84,22.49-40.63,3.5-3.87,4-8.86,4.76-13.75.32-2.04,1.15-4,1.63-6.02.16-.67.16-1.53-.14-2.11-2.14-4.14-6.89-6.62-11.46-6.1-5.44.62-6.1-.45-7.13-5.7-.97-4.92-1.7-9.95-5.26-14.28-2.69-3.27-4.1-7.75-5.45-11.89-1.2-3.71,2.59-2.16,4.41-3.27v-11.99c.22-.03.43-.05.65-.08l.5,2.14c.23,0,.45-.01.68-.02,0-1.02-.05-2.04,0-3.05.26-4.15.03-8.43,1.06-12.38.51-1.93,2.19-4.31,5.25-4.87,3.43-.63,6.63-2.7,10.06-3.12C151.34.12,157.33.12,163.29,0c2.4-.04,4.86.16,7.19.7,4.4,1.02,7.92,3.47,10.6,7.22.66.93,2.31,1.68,3.46,1.63,4.33-.19,8.41.57,10.43,4.6,1.91,3.8,1.39,7.82-1.74,11.23-.64.69-.71,1.96-.92,2.99-.67,3.16-.41,6.98-2.16,9.33-1.97,2.65-3.06,5.33-3.99,8.29-.12.39-.82.58-1.21.91-1.7,1.41-3.38,2.84-5.19,4.37,3.27,3.62,3.63,7.36,2.58,11.57-.41,1.65.33,3.59.57,5.62,6.89-.94,5.65,5.2,8.4,8.33-1.51.79-2.65,1.38-4.13,2.16.65,1.41,1.14,2.9,1.95,4.18,6.09,9.53,8.84,20.02,9.4,31.22.11,2.3.76,4.6,1.37,6.84,3.9,14.39,7.84,28.78,11.8,43.15.59,2.16,1.46,4.24,1.95,6.42.93,4.11,1.97,8.22,2.45,12.39.85,7.24,1.82,14.52,1.84,21.78.03,17.84-.47,35.68-.71,53.51-.03,2.11-1.01,2.73-2.92,2.63-1.55-.08-3.11-.02-5.26-.02,3.15,6.82,1.75,14.73,7,20.58.37.41.17,1.33.23,2.01-1.14-.13-2.63.15-3.35-.47-1.56-1.35-2.72-3.15-4.26-5.03.44,4.3.48,4.36,5.56,8.85-2.61,3.96-4.48,3.41-9.62-3.07.13,4.19,3.24,5.99,5.78,8.16-.03.37-.06.74-.09,1.11-2.09.32-4.18.64-6.8,1.04.31,4.23.72,8.9.99,13.58.47,8.28,1.12,16.57,1.15,24.86.01,3-1.48,6.01-2.38,8.99-.93,3.08-1.38,5.77,1.1,8.7,2.04,2.41,3.45,5.56,4.43,8.62,1.81,5.65,5.74,9.7,9.26,14.19,5.72,7.31,11.55,14.64,16.39,22.53,13.02,21.25,25.61,42.76,38.18,64.27,2.76,4.72,4.89,9.84,6.98,14.91.74,1.79.34,4.01.7,5.99,1.2,6.6,2.38,13.2,3.84,19.74.49,2.19-.08,3.17-2.08,3.65-.22.05-.43.13-.64.2-11.46,3.89-8.77,4.72-13.37-6.31-.47-1.12-.87-2.26-1.31-3.39-.36-.12-.71-.24-1.07-.36Z"/>
</svg>