<?xml version="1.0" encoding="UTF-8"?>
<svg id="Layer_1" xmlns="http://www.w3.org/2000/svg" version="1.1" viewBox="0 0 346.03 57.26">
  <!-- Generator: Adobe Illustrator 29.8.6, SVG Export Plug-In . SVG Version: 2.1.1 Build 1)  -->
  <polygon points="57.15 .43 62.67 6.32 62.67 51.51 57.15 57.25 80.69 57.25 75.17 51.52 75.17 30.8 92.22 30.8 92.22 27.03 75.17 27.03 75.17 4.14 91.01 4.14 98.27 10.62 98.27 .42 57.15 .43"/>
  <polygon points="0 19.23 0 57.23 22.86 57.23 22.86 0 0 19.23"/>
  <path d="M150.88,13.84c0-9.97-8.46-13.42-22.56-13.42h-20.97l5.51,5.89v45.21l-5.51,5.72h22.2l-5.31-5.72v-20.4h4.63l15.18,26.12h12.96l-17.07-28.6c7.38-2.36,10.95-7.71,10.95-14.8M135.98,24.72c-2.39,1.83-5.75,2.63-10.04,2.63h-1.7s0-23.25,0-23.25h3.23c8.05,0,12.33,1.8,12.33,10.95,0,4.98-1.43,7.84-3.83,9.67"/>
  <path d="M193.48.42h-12l3.08,7.97-15.35,41.57-.53,1.43-4.93,5.86h13.54l-4.6-5.47.61-1.64,4.23-11.47h18.94l4.93,12.52-5.09,6.05h22.16l-4.98-5.91L193.48.42ZM178.92,34.9l7.78-21.06,8.29,21.06h-16.06Z"/>
  <polygon points="297.52 57.25 292.62 51.48 285.2 6.81 289.97 .5 275.67 .49 261.7 40.85 247.21 .5 232.48 .5 236.9 6.9 230.45 51.48 225.43 57.25 239.28 57.25 234.29 51.48 239.44 16.36 255.09 57.25 259.72 57.25 274.94 14.58 280.65 51.48 276.41 57.25 297.52 57.25"/>
  <polygon points="338.78 4.14 346.03 10.62 346.03 .42 304.92 .43 310.43 6.32 310.43 51.36 304.92 57.25 346.03 57.26 346.03 47.06 338.78 53.54 322.93 53.54 322.93 51.52 322.93 30.8 339.98 30.8 339.98 30.65 339.98 27.03 339.98 26.88 322.93 26.88 322.93 4.14 338.78 4.14"/>
</svg>